<svg xmlns="http://www.w3.org/2000/svg" viewBox="0 0 32 32">
  <rect width="32" height="32" rx="6" fill="#0f2744"/>
  <!-- Flame shape: outer -->
  <path d="M16 5 C16 5 11 11 10 15 C9 19 11 21 11 21 C11 21 10 18 13 17 C13 17 12 21 14 23 C14 23 13 20 16 19 C19 20 18 23 18 23 C20 21 19 17 19 17 C22 18 21 21 21 21 C21 21 23 19 22 15 C21 11 16 5 16 5Z" fill="#2d8de0"/>
  <!-- Inner flame highlight -->
  <path d="M16 13 C16 13 13.5 16 13 18.5 C12.8 20 14 21.5 14 21.5 C14 21.5 14 19.5 16 19 C18 19.5 18 21.5 18 21.5 C18 21.5 19.2 20 19 18.5 C18.5 16 16 13 16 13Z" fill="#e67e22"/>
  <!-- Tiny core -->
  <path d="M16 17 C16 17 15 18.5 15.5 20 C15.8 21 16 21 16 21 C16 21 16.2 21 16.5 20 C17 18.5 16 17 16 17Z" fill="#ffd166"/>
</svg>
